<?xml version="1.0" encoding="UTF-8" standalone="no"?>
<svg
   width="16"
   height="16"
   fill="currentColor"
   class="bi bi-balloon-heart"
   viewBox="0 0 16 16"
   version="1.1"
   id="svg1"
   sodipodi:docname="balloon-heart.svg"
   inkscape:version="1.3.2 (091e20ef0f, 2023-11-25)"
   xmlns:inkscape="http://www.inkscape.org/namespaces/inkscape"
   xmlns:sodipodi="http://sodipodi.sourceforge.net/DTD/sodipodi-0.dtd"
   xmlns="http://www.w3.org/2000/svg"
   xmlns:svg="http://www.w3.org/2000/svg">
  <defs
     id="defs1" />
  <sodipodi:namedview
     id="namedview1"
     pagecolor="#ffffff"
     bordercolor="#000000"
     borderopacity="0.25"
     inkscape:showpageshadow="2"
     inkscape:pageopacity="0.0"
     inkscape:pagecheckerboard="0"
     inkscape:deskcolor="#d1d1d1"
     inkscape:zoom="50.6875"
     inkscape:cx="8"
     inkscape:cy="8"
     inkscape:window-width="1920"
     inkscape:window-height="1011"
     inkscape:window-x="0"
     inkscape:window-y="0"
     inkscape:window-maximized="1"
     inkscape:current-layer="svg1" />
  <path
     fill-rule="evenodd"
     d="m8 2.42-.717-.737c-1.13-1.161-3.243-.777-4.01.72-.35.685-.451 1.707.236 3.062C4.16 6.753 5.52 8.32 8 10.042c2.479-1.723 3.839-3.29 4.491-4.577.687-1.355.587-2.377.236-3.061-.767-1.498-2.88-1.882-4.01-.721zm-.49 8.5c-10.78-7.44-3-13.155.359-10.063q.068.062.132.129.065-.067.132-.129c3.36-3.092 11.137 2.624.357 10.063l.235.468a.25.25 0 1 1-.448.224l-.008-.017c.008.11.02.202.037.29.054.27.161.488.419 1.003.288.578.235 1.15.076 1.629-.157.469-.422.867-.588 1.115l-.004.007a.25.25 0 1 1-.416-.278c.168-.252.4-.6.533-1.003.133-.396.163-.824-.049-1.246l-.013-.028c-.24-.48-.38-.758-.448-1.102a3 3 0 0 1-.052-.45l-.04.08a.25.25 0 1 1-.447-.224l.235-.468ZM6.013 2.06c-.649-.18-1.483.083-1.85.798-.131.258-.245.689-.08 1.335.063.244.414.198.487-.043.21-.697.627-1.447 1.359-1.692.217-.073.304-.337.084-.398"
     id="path1"
     style="fill:#ff2a2a" />
</svg>
